<?xml version="1.0" encoding="utf-8"?>
<!-- Generator: Adobe Illustrator 19.2.1, SVG Export Plug-In . SVG Version: 6.00 Build 0)  -->
<!DOCTYPE svg PUBLIC "-//W3C//DTD SVG 1.1//EN" "http://www.w3.org/Graphics/SVG/1.1/DTD/svg11.dtd">
<svg version="1.1" id="Layer_1" xmlns="http://www.w3.org/2000/svg" xmlns:xlink="http://www.w3.org/1999/xlink" x="0px" y="0px"
	 viewBox="0 0 50 50" enable-background="new 0 0 50 50" xml:space="preserve">
<g>
	<g>
		<path fill="#005FC5" d="M48.6,23.4l-10.4-18c-0.5-0.9-1.8-1.6-2.8-1.6H14.6c-1,0-2.3,0.7-2.8,1.6l-10.4,18c-0.5,0.9-0.5,2.4,0,3.3
			l10.4,18c0.5,0.9,1.8,1.6,2.8,1.6l20.8,0c1,0,2.3-0.7,2.8-1.6l10.4-18C49.1,25.7,49.1,24.3,48.6,23.4z"/>
		<path fill="#004EB3" d="M25.2,16c-4.8,0-8.8,3.9-8.8,8.8c0,2.1,0.8,4.1,2,5.6l0,0l0,0c0.3,0.3,11.4,11.7,15.6,15.9l1.4,0
			c1,0,2.3-0.7,2.8-1.6l6.9-11.9l-12.6-13C30.3,17.6,28.1,16,25.2,16z"/>
		<path fill="#FFFFFF" d="M25.2,33.6c-4.8,0-8.8-3.9-8.8-8.8s3.9-8.8,8.8-8.8s8.8,3.9,8.8,8.8S30,33.6,25.2,33.6z M25.2,18.1
			c-3.7,0-6.7,3-6.7,6.7s3,6.7,6.7,6.7s6.7-3,6.7-6.7S28.8,18.1,25.2,18.1z"/>
		<g>
			<path fill="#FFFFFF" d="M35.5,33.9L32,30.2c1.2-1.5,1.9-3.4,1.9-5.4c0-4.8-3.9-8.8-8.8-8.8s-8.8,3.9-8.8,8.8s3.9,8.8,8.8,8.8
				c2,0,3.9-0.7,5.4-1.9l3.4,3.6L35.5,33.9z M25.2,31.5c-3.7,0-6.7-3-6.7-6.7s3-6.7,6.7-6.7s6.7,3,6.7,6.7S28.8,31.5,25.2,31.5z"/>
			<rect x="24.2" y="22.5" fill="#FFFFFF" width="1.5" height="7.2"/>
			<polygon fill="#FFFFFF" points="20.9,27.6 22.4,29.1 22.4,24.6 20.9,24.6 			"/>
			<polygon fill="#FFFFFF" points="27.5,29.1 29,27.6 29,25.8 27.5,25.8 			"/>
		</g>
	</g>
</g>
</svg>
