<svg id="Capa_1" enable-background="new 0 0 512 512" height="512" viewBox="0 0 512 512" width="512" xmlns="http://www.w3.org/2000/svg"><g><path d="m149.563 123.138c4.143 0 7.5-3.357 7.5-7.5s-3.357-7.5-7.5-7.5h-37.479c-4.143 0-7.5 3.357-7.5 7.5s3.357 7.5 7.5 7.5z"/><path d="m239.588 207.774-17.311-11.88c-3.764-2.582-8.82-2.581-12.582.001l-19.739 13.546h-17.349v-35.976h21.812c17.459 0 34.115-6.802 46.899-19.152 12.889-12.451 20.105-28.893 20.323-46.298.245-19.573-8.13-38.161-22.976-50.998-13.342-11.535-30.559-17.208-47.968-15.99-12.356-25.099-37.666-41.02-65.979-41.02-17.546 0-34.547 6.302-47.873 17.745-11.608 9.968-19.809 23.27-23.493 37.937-10.284.99-20.028 4.611-28.479 10.626-3.375 2.401-4.164 7.084-1.762 10.459 2.401 3.374 7.083 4.163 10.459 1.762 7.474-5.318 16.318-8.125 25.596-8.125.113-.001.225.002.346.001 3.673 0 6.81-2.663 7.401-6.294 2.207-13.545 9.204-25.97 19.704-34.985 10.607-9.108 24.14-14.125 38.102-14.125 24.084 0 45.439 14.475 54.405 36.876 1.301 3.252 4.69 5.166 8.139 4.62 14.967-2.376 30.126 1.947 41.592 11.861 11.493 9.938 17.977 24.321 17.788 39.463-.344 27.448-24.26 50.638-52.225 50.638h-134.554c-23.325 0-42.973-17.826-44.73-40.582-.468-6.067.3-12.049 2.282-17.777 1.354-3.914-.721-8.186-4.636-9.54-3.911-1.355-8.186.721-9.54 4.636-2.659 7.685-3.689 15.704-3.062 23.836 2.357 30.521 28.574 54.428 59.686 54.428h29.177v35.976h-17.35l-19.74-13.547c-3.762-2.582-8.818-2.579-12.582.001l-17.307 11.878c-3.024 2.074-4.829 5.501-4.829 9.168s1.805 7.094 4.827 9.167l17.309 11.879c.001.001.001.001.002.001 1.881 1.291 4.085 1.936 6.29 1.936 2.204 0 4.41-.646 6.292-1.937l19.738-13.546h24.85c4.143 0 7.5-3.357 7.5-7.5v-43.476h19.283v21.797c0 4.143 3.357 7.5 7.5 7.5s7.5-3.357 7.5-7.5v-21.797h19.283v43.476c0 4.143 3.357 7.5 7.5 7.5h24.849l19.739 13.546c1.881 1.291 4.086 1.938 6.292 1.938 2.204 0 4.409-.646 6.29-1.937.001 0 .001 0 .002-.001l17.309-11.879c3.022-2.074 4.827-5.501 4.827-9.167s-1.805-7.095-4.827-9.169zm-193.927 16.337-10.449-7.171 10.449-7.171 10.449 7.171zm170.326.001-10.45-7.172 10.45-7.172 10.449 7.172z"/><path d="m362.438 380.206c-4.143 0-7.5 3.357-7.5 7.5s3.357 7.5 7.5 7.5h37.479c4.143 0 7.5-3.357 7.5-7.5s-3.357-7.5-7.5-7.5z"/><path d="m489.942 479.842-17.311-11.88c-3.764-2.582-8.82-2.581-12.582.001l-19.739 13.546h-17.35v-35.976h21.812c17.459 0 34.115-6.802 46.899-19.152 12.888-12.451 20.105-28.894 20.322-46.298.172-13.697-3.817-26.9-11.536-38.181-2.339-3.417-7.007-4.294-10.425-1.954-3.419 2.339-4.293 7.007-1.954 10.425 5.966 8.719 9.05 18.928 8.917 29.522-.343 27.448-24.258 50.638-52.224 50.638h-134.552c-23.325 0-42.973-17.826-44.73-40.582-.946-12.259 3.324-24.455 11.716-33.461 8.425-9.044 19.891-14.012 32.316-14.012.115.001.233.005.347.001 3.674 0 6.81-2.663 7.401-6.294 2.207-13.545 9.204-25.97 19.704-34.985 10.607-9.108 24.14-14.125 38.102-14.125 24.084 0 45.439 14.475 54.405 36.876 1.302 3.252 4.685 5.165 8.14 4.62 10.556-1.675 21.167-.078 30.683 4.627 3.713 1.837 8.212.313 10.047-3.398 1.836-3.713.314-8.212-3.398-10.047-10.575-5.229-22.181-7.499-33.899-6.661-12.357-25.097-37.665-41.017-65.977-41.017-17.546 0-34.547 6.302-47.873 17.745-11.608 9.967-19.808 23.267-23.492 37.933-14.378 1.367-27.512 7.813-37.48 18.512-11.243 12.067-16.964 28.411-15.695 44.841 2.357 30.521 28.574 54.428 59.686 54.428h29.177v35.976h-17.35l-19.74-13.547c-3.764-2.582-8.82-2.581-12.582.001l-17.31 11.879c-3.022 2.074-4.827 5.501-4.827 9.167s1.805 7.093 4.827 9.167l17.306 11.876c1.883 1.294 4.09 1.941 6.296 1.941 2.205 0 4.41-.646 6.292-1.938l19.738-13.546h24.85c4.143 0 7.5-3.357 7.5-7.5v-43.476h19.283v21.797c0 4.143 3.357 7.5 7.5 7.5s7.5-3.357 7.5-7.5v-21.797h19.282v43.476c0 4.143 3.357 7.5 7.5 7.5h24.85l19.735 13.543c1.883 1.294 4.089 1.941 6.296 1.941 2.205 0 4.411-.646 6.294-1.939l17.307-11.878c3.022-2.074 4.827-5.501 4.827-9.167s-1.808-7.094-4.831-9.168zm-193.927 16.339-10.45-7.172 10.45-7.172 10.449 7.172zm170.327 0-10.45-7.172 10.45-7.172 10.449 7.172z"/><path d="m307.111 144.147h16.5c4.143 0 7.5-3.357 7.5-7.5s-3.357-7.5-7.5-7.5h-16.5c-4.143 0-7.5 3.357-7.5 7.5s3.358 7.5 7.5 7.5z"/><path d="m351.039 144.147h9v9c0 4.143 3.357 7.5 7.5 7.5s7.5-3.357 7.5-7.5v-16.5c0-4.143-3.357-7.5-7.5-7.5h-16.5c-4.143 0-7.5 3.357-7.5 7.5s3.357 7.5 7.5 7.5z"/><path d="m375.039 178.489c0-4.143-3.357-7.5-7.5-7.5s-7.5 3.357-7.5 7.5v25.344c0 4.143 3.357 7.5 7.5 7.5s7.5-3.357 7.5-7.5z"/><path d="m367.539 221.677c-4.143 0-7.5 3.357-7.5 7.5v16.5c0 4.143 3.357 7.5 7.5 7.5s7.5-3.357 7.5-7.5v-16.5c0-4.143-3.358-7.5-7.5-7.5z"/><path d="m204.89 367.866h-16.5c-4.143 0-7.5 3.357-7.5 7.5s3.357 7.5 7.5 7.5h16.5c4.143 0 7.5-3.357 7.5-7.5s-3.357-7.5-7.5-7.5z"/><path d="m160.964 367.866h-9v-9c0-4.143-3.357-7.5-7.5-7.5s-7.5 3.357-7.5 7.5v16.5c0 4.143 3.357 7.5 7.5 7.5h16.5c4.143 0 7.5-3.357 7.5-7.5s-3.358-7.5-7.5-7.5z"/><path d="m136.964 333.524c0 4.143 3.357 7.5 7.5 7.5s7.5-3.357 7.5-7.5v-25.344c0-4.143-3.357-7.5-7.5-7.5s-7.5 3.357-7.5 7.5z"/><path d="m144.464 290.337c4.143 0 7.5-3.357 7.5-7.5v-16.5c0-4.143-3.357-7.5-7.5-7.5s-7.5 3.357-7.5 7.5v16.5c0 4.143 3.357 7.5 7.5 7.5z"/></g></svg>