<?xml version="1.0" encoding="UTF-8"?>
<svg xmlns="http://www.w3.org/2000/svg" id="Layer_1" data-name="Layer 1" 
viewBox="0 0 512 512" width="512" height="512">
<path d="M481.442,83h-.013l-278.985.609-7.531-7.542A52.2,52.2,0,0,1,180.365,47.96,43.91,43.91,0,0,0,166.5,22.506a44.892,44.892,0,0,0-48.811-7.332,6,6,0,0,0-1.709,9.678l20.21,20.239-9.862,9.876L106.1,34.716A6,6,0,0,0,96.428,36.4a44.492,44.492,0,0,0,6.294,47.4l-23.156.054A54.927,54.927,0,0,0,25,138.914V401.752C25,430.311,47.753,454,76.264,454h29.362A6.733,6.733,0,0,0,112,447.545V406h20v8.864a6,6,0,0,0,5.015,5.919l19.507,3.248a84.081,84.081,0,0,0,4.96,11.356L150.53,451.008a6,6,0,0,0,.68,7.7l24.422,24.313a6,6,0,0,0,7.691.65L199,472.611a85.791,85.791,0,0,0,11.4,5.058L213.67,497a6,6,0,0,0,5.916,5h34.435a6,6,0,0,0,5.917-5l3.247-19.3a83.163,83.163,0,0,0,11.381-4.888l15.659,10.979a6,6,0,0,0,7.688-.672l24.349-24.364a6,6,0,0,0,.653-7.708l-11.158-15.762a76.369,76.369,0,0,0,3.7-11.317l17.61-3.191a6,6,0,0,0,4.931-5.9V406h30.546l-8.114,39.044a5.928,5.928,0,0,0,.141,2.956h0l13.481,44a6,6,0,0,0,10.092,2.389L416.8,459.934l-.01-.009a6.342,6.342,0,0,0,1.77-2.9L429.229,406h52.213A5.288,5.288,0,0,0,487,400.423V88.905a5.694,5.694,0,0,0-1.541-4.2A5.456,5.456,0,0,0,481.442,83ZM100,442H76.264C54.37,442,37,423.694,37,401.752V173.218A53.88,53.88,0,0,0,79.526,194H100Zm226-32.146-16.409,2.973a6,6,0,0,0-4.708,4.283c-.318,1.131-.617,2.252-.914,3.364-1.248,4.672-2.326,8.707-4.407,12.4a6,6,0,0,0,.33,6.413L310.2,453.842l-17.21,17.221-14.563-10.21a5.991,5.991,0,0,0-6.384-.318,71.461,71.461,0,0,1-15.776,6.742,6,6,0,0,0-4.3,4.784L248.946,490H224.657l-3.033-17.944a6,6,0,0,0-4.3-4.779,72.274,72.274,0,0,1-15.794-6.952,6,6,0,0,0-6.4.328l-14.607,10.3-17.271-17.194,10.184-14.526a6,6,0,0,0,.314-6.391A71.8,71.8,0,0,1,166.92,417.1a6,6,0,0,0-4.792-4.3L144,409.781V385.567l18.125-3.007a6,6,0,0,0,4.795-4.3c1.518-5.413,4.321-10.762,7.125-15.736a6,6,0,0,0-.335-6.419l-10.29-14.5,17.164-17.1,14.562,10.372a6,6,0,0,0,6.42.343,70.75,70.75,0,0,1,15.777-6.328,6,6,0,0,0,4.3-4.748L224.63,307h24.339l2.961,17.139a6,6,0,0,0,4.3,4.757,69.569,69.569,0,0,1,15.738,6.124,6,6,0,0,0,6.412-.337l14.471-10.27,17.01,17.092-10.536,14.526a6,6,0,0,0-.369,6.469c2.779,4.931,4.454,10.484,5.931,15.749a6,6,0,0,0,4.711,4.283L326,385.5Zm47.4,31.771,34.281-164.966L419,278.994,384.719,443.961Zm37.1-176.638a17.621,17.621,0,0,1,19.66-10.2,17.531,17.531,0,0,1,13.975,17.142Zm-27.99,213.685-7.5-24.462,25.661,5.3Zm25.277-29.951-11.315-2.335,34.281-164.967,11.314,2.335ZM475,394H431.739L456,278h0c1-7.752-.138-15.661-4.479-22.27a29.759,29.759,0,0,0-53.888,10.309L371.04,394H338V380.481a6,6,0,0,0-4.934-5.9l-17.673-3.192a80.137,80.137,0,0,0-4.191-11.3l11.368-15.674a6,6,0,0,0-.6-7.755l-24.2-24.313a6,6,0,0,0-7.726-.66l-15.623,11.087a81.022,81.022,0,0,0-11.3-4.358l-3.185-18.438A6,6,0,0,0,254.021,295H219.586a6,6,0,0,0-5.911,4.969l-3.222,18.465a82.339,82.339,0,0,0-11.35,4.532L183.419,311.8a6,6,0,0,0-7.716.637l-24.349,24.262a6,6,0,0,0-.658,7.723l11.048,15.563a84.3,84.3,0,0,0-5.192,11.34l-19.534,3.242A6,6,0,0,0,132,380.481V394H112V187.977A6.312,6.312,0,0,0,105.626,182h-26.1a43.072,43.072,0,0,1-.147-86.143l39.094-.094a43.572,43.572,0,0,0,10.178,3.173,53.521,53.521,0,0,1,28.534,14.774l51.478,51.553a6,6,0,0,0,8.489,0h0a6,6,0,0,0,0-8.482l-51.478-51.553a65.569,65.569,0,0,0-34.924-18.1A34.916,34.916,0,0,1,122,84.172v-.42l-.757,0a32.671,32.671,0,0,1-16.619-33.527L122.074,67.7a6.005,6.005,0,0,0,8.495,0l18.342-18.367a6,6,0,0,0,0-8.48L131.487,23.4A32.638,32.638,0,0,1,158.4,31.359a32.019,32.019,0,0,1,10.129,18.554,64.29,64.29,0,0,0,17.9,34.633l101.05,101.2a65.557,65.557,0,0,0,34.991,18,32.066,32.066,0,0,1,17.088,8.867,32.533,32.533,0,0,1,9,28.172L331.9,224.111a6,6,0,0,0-8.492,0L305.07,242.479a6,6,0,0,0,0,8.479l16.573,16.6a32.7,32.7,0,0,1-26.788-8.044,32.084,32.084,0,0,1-10.023-18.658,63.317,63.317,0,0,0-18.105-34.424L246.832,186.5a6,6,0,0,0-8.489,0h0a6,6,0,0,0,0,8.482l19.9,19.924a51.4,51.4,0,0,1,14.757,27.9A44.21,44.21,0,0,0,316.63,280a44.531,44.531,0,0,0,18.753-4.157,5.994,5.994,0,0,0,1.79-9.715l-19.377-19.4,9.861-9.876,19.388,19.416a6,6,0,0,0,6.738,1.221,6.188,6.188,0,0,0,3.008-3.057,44.669,44.669,0,0,0-8.749-50.294A44.007,44.007,0,0,0,324.6,191.934a53.618,53.618,0,0,1-28.637-14.67l-81.59-81.708L475,94.919Z"/><path d="M69,227.817a6,6,0,0,0-6,6V339.389a6,6,0,0,0,12,0V233.817A6,6,0,0,0,69,227.817Z"/><path d="M69,205.553a6,6,0,0,0-6,6v4.614a6,6,0,1,0,12,0v-4.614A6,6,0,0,0,69,205.553Z"/><path d="M236.771,337.534a60.139,60.139,0,1,0,60.219,60.139A60.247,60.247,0,0,0,236.771,337.534Zm0,108.277a48.139,48.139,0,1,1,48.219-48.138A48.234,48.234,0,0,1,236.771,445.811Z"/><path d="M236.771,364.061a33.612,33.612,0,1,0,33.653,33.612A33.671,33.671,0,0,0,236.771,364.061Zm0,55.224a21.612,21.612,0,1,1,21.653-21.612A21.658,21.658,0,0,1,236.771,419.285Z"/></svg>
