<?xml version="1.0" encoding="iso-8859-1"?>
<!-- Generator: Adobe Illustrator 19.0.0, SVG Export Plug-In . SVG Version: 6.00 Build 0)  -->
<svg version="1.1" id="Capa_1" xmlns="http://www.w3.org/2000/svg" xmlns:xlink="http://www.w3.org/1999/xlink" x="0px" y="0px"
	 viewBox="0 0 511.998 511.998" style="enable-background:new 0 0 511.998 511.998;" xml:space="preserve">
<g>
	<g>
		<g>
			<path d="M115.937,236.615c0,4.142,3.358,7.5,7.5,7.5c4.142,0,7.5-3.358,7.5-7.5c0-9.229,7.508-16.737,16.737-16.737
				s16.737,7.509,16.737,16.737c0,4.142,3.358,7.5,7.5,7.5s7.5-3.358,7.5-7.5c0-17.5-14.237-31.736-31.736-31.736
				C130.174,204.878,115.937,219.115,115.937,236.615z"/>
			<path d="M332.588,236.615c0,4.142,3.358,7.5,7.5,7.5c4.143,0,7.5-3.358,7.5-7.5c0-9.229,7.509-16.737,16.737-16.737
				c9.229,0,16.737,7.509,16.737,16.737c0,4.142,3.357,7.5,7.5,7.5s7.5-3.358,7.5-7.5c0-17.5-14.237-31.736-31.736-31.736
				C346.824,204.878,332.588,219.115,332.588,236.615z"/>
			<path d="M117.264,459.48c-29.939-18.113-54.771-42.149-71.81-69.514c-17.753-28.509-26.753-59.374-26.753-91.738
				c0-109.603,106.452-198.772,237.298-198.772c42.74,0,84.641,9.632,121.172,27.852c35.329,17.622,64.767,42.749,85.128,72.664
				c2.33,3.425,6.998,4.311,10.42,1.98c3.425-2.331,4.311-6.996,1.981-10.42c-21.804-32.032-53.213-58.882-90.833-77.648
				c-21.473-10.711-44.686-18.608-68.813-23.51c7.018-4.993,15.194-9.04,24.45-12.085c7.038-2.314,12.707-7.257,15.962-13.914
				c3.254-6.656,3.67-14.168,1.171-21.152c-4.946-13.825-20.503-21.235-34.682-16.515c-23.692,7.881-43.381,20.31-58.61,36.984
				c0.172-10.215,1.722-19.952,4.27-26.319c5.578-13.946-1.23-29.83-15.175-35.408c-6.757-2.705-14.163-2.615-20.852,0.252
				c-6.688,2.867-11.859,8.168-14.561,14.925c-6.255,15.635-10.581,43.554-6.579,70.782c-49.834,7.655-95.735,27.835-132.379,58.713
				C30.112,187.045,3.701,240.882,3.701,298.228c0,34.714,10.035,69.179,29.02,99.667c18.281,29.356,44.83,55.091,76.779,74.419
				c1.214,0.734,2.553,1.084,3.875,1.084c2.538,0,5.015-1.289,6.424-3.619C121.942,466.234,120.808,461.623,117.264,459.48z
				 M230.954,22.712c1.215-3.038,3.539-5.42,6.544-6.708c3.004-1.289,6.331-1.329,9.369-0.112c6.267,2.507,9.327,9.645,6.82,15.912
				c-3.788,9.469-5.765,23.67-5.288,37.987c0.179,5.379,3.585,9.983,8.676,11.73c5.091,1.747,10.606,0.202,14.05-3.934
				c13.878-16.669,32.572-28.998,55.565-36.647c6.498-2.165,13.602,1.126,15.823,7.336c1.124,3.144,0.939,6.521-0.523,9.512
				c-1.463,2.992-4.011,5.213-7.174,6.254c-15.699,5.164-28.842,12.92-39.149,23.069c-13.067-1.755-26.329-2.655-39.667-2.655
				c-10.331,0-20.567,0.527-30.667,1.558C221.828,62.4,225.257,36.952,230.954,22.712z"/>
			<path d="M271.08,298.744c1.441,2.191,3.834,3.38,6.273,3.38c1.414,0,2.845-0.399,4.114-1.234
				c3.461-2.276,4.421-6.927,2.146-10.388l-6.992-10.632c-2.277-3.462-6.929-4.422-10.388-2.146
				c-3.461,2.276-4.421,6.927-2.146,10.388L271.08,298.744z"/>
			<path d="M493.717,226.406c-1.607-3.819-6.006-5.608-9.821-4.007c-3.818,1.607-5.612,6.003-4.007,9.821
				c8.897,21.158,13.409,43.365,13.409,66.008c0,109.603-106.451,198.771-237.298,198.771c-35.524,0-69.687-6.419-101.539-19.079
				c-3.847-1.53-8.209,0.351-9.74,4.199c-1.53,3.85,0.351,8.21,4.2,9.74c33.622,13.363,69.649,20.14,107.079,20.14
				c67.154,0,130.344-22.083,177.932-62.181c47.956-40.408,74.367-94.244,74.367-151.591
				C508.297,273.579,503.391,249.415,493.717,226.406z"/>
			<path d="M230.531,300.889c1.27,0.835,2.7,1.234,4.114,1.234c2.439,0,4.832-1.189,6.273-3.38l6.992-10.632
				c2.276-3.461,1.316-8.111-2.145-10.388c-3.46-2.274-8.111-1.315-10.387,2.146l-6.992,10.632
				C226.109,293.963,227.07,298.613,230.531,300.889z"/>
			<path d="M255.999,425.344c47.773,0,89.486-19.979,105.763-50.144c11.33-1.366,21.507-7.63,27.835-17.345
				c7.193-11.04,8.31-24.827,2.986-36.879c-4.941-11.191-15.016-19.484-26.946-22.185l-52.207-11.816
				c-6.598-1.493-12.268-5.738-15.559-11.647l-7.405-13.301c-6.849-12.299-19.847-19.938-33.921-19.938h-1.091
				c-14.076,0-27.073,7.64-33.921,19.938l-7.406,13.301c-3.29,5.908-8.961,10.153-15.558,11.647l-52.207,11.816
				c-11.931,2.7-22.005,10.993-26.946,22.184c-5.323,12.054-4.206,25.841,2.986,36.88c6.329,9.715,16.506,15.979,27.835,17.345
				C166.512,405.366,208.226,425.344,255.999,425.344z M255.999,410.344c-37.445,0-71.366-13.891-87.699-34.857h175.4
				C327.365,396.454,293.444,410.344,255.999,410.344z M134.969,349.668c-4.48-6.876-5.148-15.125-1.833-22.632
				c3.033-6.868,9.215-11.957,16.537-13.613l52.208-11.816c10.749-2.434,19.99-9.352,25.352-18.98l7.406-13.301
				c4.203-7.547,12.179-12.235,20.817-12.235h1.091c8.638,0,16.615,4.688,20.817,12.235l7.405,13.301
				c5.362,9.629,14.603,16.547,25.352,18.98l52.208,11.816c7.322,1.656,13.504,6.745,16.537,13.612v0.001
				c3.315,7.507,2.647,15.756-1.833,22.632c-4.48,6.877-11.757,10.82-19.964,10.82H154.931
				C146.724,360.487,139.449,356.545,134.969,349.668z"/>
		</g>
	</g>
</g>
<g>
</g>
<g>
</g>
<g>
</g>
<g>
</g>
<g>
</g>
<g>
</g>
<g>
</g>
<g>
</g>
<g>
</g>
<g>
</g>
<g>
</g>
<g>
</g>
<g>
</g>
<g>
</g>
<g>
</g>
</svg>
