<svg height="512pt" viewBox="0 0 512 512" width="512pt" xmlns="http://www.w3.org/2000/svg"><path d="m256 7.5c-137.238281 0-248.5 111.261719-248.5 248.5s111.261719 248.5 248.5 248.5 248.5-111.261719 248.5-248.5-111.261719-248.5-248.5-248.5zm0 376.78125c-70.851562 0-128.28125-57.429688-128.28125-128.28125s57.429688-128.28125 128.28125-128.28125 128.28125 57.429688 128.28125 128.28125-57.429688 128.28125-128.28125 128.28125zm0 0" fill="#ffe8ca"/><path d="m504.5 256c0 137.238281-111.261719 248.5-248.5 248.5-5.898438 0-11.75-.210938-17.539062-.609375 129.050781-9 230.949218-116.550781 230.949218-247.890625s-101.898437-238.890625-230.949218-247.890625c5.789062-.398437 11.640624-.609375 17.539062-.609375 137.238281 0 248.5 111.261719 248.5 248.5zm0 0" fill="#ffdbaa"/><path d="m256 384.28125c-70.851562 0-128.28125-57.429688-128.28125-128.28125h-120.21875c0 137.238281 111.261719 248.5 248.5 248.5zm0 0" fill="#ff6672"/><path d="m504.5 256h-120.21875c0-70.851562-57.429688-128.28125-128.28125-128.28125v-120.21875c137.238281 0 248.5 111.261719 248.5 248.5zm0 0" fill="#5592d7"/><path d="m504.5 256h-35.089844c0-125.328125-92.789062-228.988281-213.410156-246.039062-5.78125-.820313-11.628906-1.441407-17.539062-1.851563 5.789062-.398437 11.640624-.609375 17.539062-.609375 137.238281 0 248.5 111.261719 248.5 248.5zm0 0" fill="#1475cc"/><path d="m448.96875 87.78125c-2.726562-3.121094-7.460938-3.441406-10.582031-.71875-3.121094 2.722656-3.445313 7.460938-.722657 10.582031 36.617188 41.96875 57.476563 95.285157 59.203126 150.855469h-105.300782c-3.769531-68.910156-59.160156-124.296875-128.066406-128.066406v-105.300782c55.082031 1.714844 108.027344 22.253907 149.820312 58.300782 3.132813 2.703125 7.871094 2.355468 10.578126-.78125 2.703124-3.136719 2.355468-7.875-.78125-10.578125-46.410157-40.027344-105.761719-62.074219-167.117188-62.074219-68.378906 0-132.667969 26.628906-181.019531 74.980469-48.351563 48.351562-74.980469 112.640625-74.980469 181.019531s26.628906 132.667969 74.980469 181.019531c48.351562 48.351563 112.640625 74.980469 181.019531 74.980469s132.667969-26.628906 181.019531-74.980469c48.351563-48.351562 74.980469-112.640625 74.980469-181.019531 0-61.886719-22.386719-121.628906-63.03125-168.21875zm-363.382812-2.195312c43.746093-43.746094 101.351562-68.589844 162.914062-70.457032v105.320313c-27.050781 1.457031-52.621094 10.777343-74.351562 27.21875-3.300782 2.5-3.953126 7.203125-1.453126 10.503906 2.5 3.304687 7.203126 3.957031 10.503907 1.457031 21.101562-15.964844 46.273437-24.40625 72.800781-24.40625 66.597656 0 120.773438 54.179688 120.773438 120.777344s-54.175782 120.777344-120.773438 120.777344-120.777344-54.179688-120.777344-120.777344c0-26.523438 8.4375-51.699219 24.40625-72.800781 2.5-3.300781 1.847656-8.003907-1.457031-10.503907s-8.007813-1.847656-10.507813 1.457032c-16.4375 21.726562-25.757812 47.296875-27.214843 74.347656h-105.320313c1.867188-61.5625 26.710938-119.164062 70.457032-162.914062zm340.828124 340.828124c-43.75 43.746094-101.351562 68.589844-162.914062 70.457032v-43.871094c0-4.140625-3.355469-7.5-7.5-7.5-4.140625 0-7.5 3.359375-7.5 7.5v43.871094c-61.5625-1.867188-119.164062-26.710938-162.914062-70.457032-43.746094-43.746093-68.589844-101.351562-70.457032-162.914062h105.304688c3.769531 68.910156 59.15625 124.296875 128.066406 128.066406v23.433594c0 4.140625 3.359375 7.5 7.5 7.5 4.144531 0 7.5-3.359375 7.5-7.5v-23.433594c68.910156-3.769531 124.296875-59.15625 128.066406-128.066406h105.304688c-1.867188 61.5625-26.710938 119.167969-70.457032 162.914062zm0 0"/><path d="m159.589844 106.96875c-20.894532 13.53125-39.089844 31.726562-52.621094 52.621094-2.253906 3.476562-1.257812 8.121094 2.21875 10.371094 1.257812.816406 2.671875 1.207031 4.070312 1.207031 2.457032 0 4.863282-1.207031 6.300782-3.425781 12.390625-19.128907 29.050781-35.792969 48.183594-48.183594 3.476562-2.25 4.46875-6.894532 2.21875-10.371094s-6.894532-4.46875-10.371094-2.21875zm0 0"/><path d="m62.871094 189.25c.894531.34375 1.808594.507812 2.710937.507812 3.003907 0 5.84375-1.820312 6.992188-4.792968 19.949219-51.476563 60.914062-92.441406 112.390625-112.390625 3.863281-1.496094 5.78125-5.839844 4.285156-9.703125-1.496094-3.859375-5.839844-5.777344-9.703125-4.28125-55.402344 21.46875-99.488281 65.554687-120.957031 120.957031-1.496094 3.859375.421875 8.207031 4.28125 9.703125zm0 0"/></svg>