<svg height="512pt" viewBox="-48 0 512 512.00207" width="512pt" xmlns="http://www.w3.org/2000/svg"><path d="m299.660156 132.378906c4.140625 0 7.5-3.355468 7.5-7.5v-13.597656c0-4.144531-3.359375-7.5-7.5-7.5s-7.5 3.355469-7.5 7.5v13.597656c0 4.144532 3.359375 7.5 7.5 7.5zm117.136719 27.296875c-1.339844-9.503906-6.882813-17.757812-15.203125-22.640625-9.558594-5.605468-17.828125-11.875-25.328125-18.484375 10.019531-12.027343 17.367187-27.453125 21.390625-45.101562.921875-4.039063-1.605469-8.058594-5.640625-8.980469-4.039063-.917969-8.0625 1.605469-8.980469 5.644531-3.421875 14.988281-9.492187 28.007813-17.703125 38.121094-6.082031-6.121094-11.75-12.382813-17.34375-18.570313-6.296875-6.964843-12.691406-14.03125-19.621093-20.800781 14.804687-16.867187 35.085937-30.472656 57.320312-38.46875.199219 2.273438.355469 4.574219.429688 6.910157.136718 4.136718 3.589843 7.40625 7.742187 7.25 4.140625-.136719 7.386719-3.601563 7.25-7.742188-.195313-6.023438-.78125-11.90625-1.710937-17.523438-.011719-.082031-.023438-.164062-.039063-.246093-.042969-.277344-.082031-.5625-.128906-.835938-1.804688-10.316406-10.707031-17.957031-21.175781-18.1679685-13.699219-.2773435-34.191407.8164065-53.972657 7.6093755-18.199219 6.246093-32.421875 16.070312-42.382812 29.242187-20.523438-8.628906-44.207031-12.722656-73.148438-12.722656-28.9375 0-52.621093 4.09375-73.144531 12.722656-9.964844-13.171875-24.1875-22.996094-42.386719-29.242187-19.777343-6.792969-40.265625-7.882813-53.972656-7.6093755-10.46875.2109375-19.371094 7.8515625-21.175781 18.1679685-5.394532 30.867188-.105469 72.640625 22.964844 100.347657-7.5 6.609374-15.769532 12.878906-25.324219 18.480468-8.324219 4.882813-13.867188 13.136719-15.203125 22.640625-1.320313 9.363281 1.660156 18.660157 8.175781 25.507813 11.554687 12.144531 24.238281 23.203125 37.777344 32.996094l-13.039063 13.039062c-19.542968 19.542969-22.726562 49.929688-8.414062 72.945312-2.519532 3.910157-4.027344 8.414063-4.34375 13.1875-.496094 7.421876 1.925781 14.589844 6.820312 20.1875 5.289063 6.046876 12.929688 9.515626 20.964844 9.515626 4.816406 0 9.515625-1.257813 13.644531-3.582032l11.210938 11.207032c-4.886719 7.449218-8.03125 15.394531-9.554688 24.125-.710937 4.078124 2.019531 7.964843 6.097657 8.675781.4375.078125.871093.113281 1.300781.113281 3.574219 0 6.742187-2.566406 7.378906-6.210938.996094-5.714843 2.859375-10.867187 5.683594-15.792968l44.070312 44.070312c-11.871093 6.820313-23.007812 6.773438-34.683593 6.703125-5.5-.023437-11.179688-.054687-16.816407.710938.082031-.585938.152344-1.183594.21875-1.78125.441407-4.117188-2.539062-7.816407-6.65625-8.261719-4.109375-.449219-7.816406 2.539062-8.257812 6.65625-.082031.730469-.175781 1.464844-.289063 2.1875-.683594 4.4375.8125 8.988281 4.003906 12.183594 2.679688 2.679687 6.320313 4.164062 10.042969 4.164062.710938 0 1.421875-.058594 2.132813-.164062 4.816406-.746094 10.03125-.71875 15.546875-.691406 9.691406.046874 20.96875.097656 32.996093-4.386719-1.03125 2.453125-2.078124 4.671875-3.128906 6.621093-7.289062 13.507813-2.226562 30.429688 11.285156 37.71875 4.054688 2.1875 8.617188 3.34375 13.199219 3.34375 10.257813 0 19.65625-5.605468 24.523438-14.628906.710937-1.320312 1.414062-2.71875 2.113281-4.148437l11.035156 11.039062c4.652344 4.648438 10.835938 7.210938 17.410156 7.210938 6.171876 0 11.996094-2.257813 16.535157-6.378907 6.320312-2.96875 20.132812.71875 40.828125 19.839844 3.085937 2.855469 6.984375 4.273438 10.875 4.273438 3.726562 0 7.4375-1.320313 10.4375-3.910156l16.300781 16.296874c4.992187 4.996094 11.632813 7.746094 18.695313 7.746094h34.558593c7.097657 0 13.441407-4.238281 16.15625-10.800781 2.71875-6.554687 1.230469-14.035156-3.789062-19.058594l-38.050781-38.050781c5.296874-6.128906 5.222656-15.265625-.363282-21.316406-19.121094-20.695313-22.8125-34.507813-19.839844-40.828125 4.121094-4.535157 6.378907-10.363281 6.378907-16.535157 0-5.375-1.714844-10.484374-4.878907-14.714843 5.960938-9.191407 9.992188-19.675781 12.015626-31.273438 7.816406-10.628906 14.992187-24.28125 18.1875-40.917969 1.40625-7.300781-.117188-14.714843-4.289063-20.871093-3.234375-4.773438-7.765625-8.34375-13.042969-10.363281 33.332032-14.304688 63.574219-35.214844 89.148438-62.089844 6.515625-6.847656 9.492187-16.144532 8.175781-25.507813zm-39.042969-144.644531c1.253906.027344 2.4375.390625 3.453125 1.011719-24.734375 8.792969-47.378906 23.917969-63.960937 42.726562-6.152344-5.152343-12.792969-9.980469-20.183594-14.265625-.507812-.292968-1.027344-.5625-1.535156-.851562 11.242187-13.273438 34.761718-29.546875 82.226562-28.621094zm-338.40625 0c1.339844-.023438 2.660156-.039062 3.957032-.039062 44.828124 0 67.351562 15.75 78.277343 28.660156-.511719.289062-1.03125.558594-1.539062.851562-7.394531 4.285156-14.035157 9.117188-20.183594 14.265625-16.582031-18.808593-39.226563-33.933593-63.960937-42.726562 1.015624-.621094 2.195312-.984375 3.449218-1.011719zm-7.988281 15.339844c22.257813 8 42.5625 21.609375 57.378906 38.492187-6.929687 6.769531-13.324219 13.835938-19.621093 20.800781-5.589844 6.179688-11.25 12.433594-17.324219 18.546876-13.429688-16.824219-23.597657-45.1875-20.433594-77.839844zm-8.261719 119.605468c24.921875-14.617187 41.300782-32.730468 57.144532-50.253906 7.746093-8.566406 15.214843-16.824218 23.363281-24.34375 0-.003906.003906-.003906.003906-.003906.289063-.226562.550781-.472656.796875-.730469 8.984375-8.1875 18.816406-15.472656 30.765625-21.273437.550781-.1875 1.089844-.429688 1.605469-.753906.011718-.007813.023437-.015626.035156-.023438 17.871094-8.34375 40.441406-13.425781 71.738281-13.425781s53.871094 5.082031 71.742188 13.425781c.011719.007812.023437.015625.035156.023438.492187.308593 1.011719.535156 1.539063.71875 11.976562 5.808593 21.832031 13.105468 30.832031 21.308593.246093.257813.503906.503907.792969.730469.003906 0 .003906 0 .007812.003906 8.148438 7.515625 15.617188 15.777344 23.363281 24.34375 15.839844 17.523438 32.222657 35.636719 57.140625 50.253906 1.363282.796876 2.566406 1.785157 3.621094 2.894532-30.378906 17.371094-63.6875 31.417968-126.960938-11.023438-18.867187-12.65625-38.371093-25.742187-62.109374-25.742187-23.738282 0-43.246094 13.085937-62.113282 25.742187-32.222656 21.613282-65.507812 43.933594-126.878906 10.941406 1.035156-1.074218 2.207031-2.035156 3.535156-2.8125zm-3.746094 24.867188c-1.96875-2.070312-3.289062-4.582031-3.917968-7.273438 24.976562 12.925782 47.875 18.4375 69.484375 16.722657-5.992188 2.863281-11.519531 6.75-16.355469 11.585937l-11.558594 11.558594c-13.527344-9.597656-26.175781-20.53125-37.652344-32.59375zm44.507813 147.453125c-2.546875 2.59375-4.1875 4.011719-5.9375 5.519531l-.167969.144532-1.058594.917968c-2.339843 2.046875-5.339843 3.171875-8.441406 3.171875-3.710937 0-7.238281-1.597656-9.675781-4.386719-2.257813-2.582031-3.375-5.886718-3.144531-9.3125.210937-3.152343 1.554687-6.050781 3.789062-8.257812.105469-.097656.210938-.195312.308594-.300781.089844-.082031.171875-.171875.265625-.25.480469-.425781.929687-.808594 1.375-1.195313 1.496094-1.289062 2.574219-2.222656 4.359375-4.039062 2.511719-2.558594 5.835938-3.839844 9.164062-3.839844 3.25 0 6.5 1.222656 8.996094 3.671875 2.449219 2.402344 3.816406 5.613281 3.84375 9.042969.03125 3.429687-1.273437 6.667968-3.675781 9.113281zm95.136719 130.613281c-2.246094 4.164063-6.582032 6.75-11.320313 6.75-2.132812 0-4.179687-.519531-6.078125-1.542968-6.230468-3.363282-8.566406-11.167969-5.207031-17.398438 2.394531-4.433594 4.675781-9.769531 6.824219-15.929688l19.796875 19.796876c-1.3125 3-2.65625 5.800781-4.015625 8.324218zm50.5625 3.40625c-1.816406 1.816406-4.230469 2.816406-6.800782 2.816406-2.570312 0-4.984374-1-6.800781-2.816406l-18.796875-18.796875c-.011718-.007812-.019531-.019531-.03125-.03125l-88.945312-88.949219c-.003906 0-.003906 0-.003906 0l-14.671876-14.675781c.335938-.335937.6875-.6875 1.054688-1.0625 5.210938-5.304687 8.039062-12.320312 7.972656-19.757812-.070312-7.4375-3.027344-14.402344-8.335937-19.613281-10.667969-10.46875-27.691407-10.585938-38.507813-.46875-8.480468-16.691407-5.53125-37.46875 8.136719-51.136719l19.296875-19.292969c.003906-.003906.007812-.011719.011719-.015625l16.03125-16.03125c8.332031-8.328125 19.402343-12.917969 31.183593-12.917969 11.777344 0 22.851563 4.589844 31.183594 12.917969l101.945313 101.945313c-10.683594 5.890624-16.613281 18.394531-13.664063 30.820312 2.996094 12.605469 14.128906 21.410156 27.070313 21.410156 2.164062 0 4.332031-.253906 6.453125-.757812 5.675781-1.347656 13.40625-4.496094 21.898437-9.71875l8.421875 8.425781c1.820313 1.816406 2.820313 4.230469 2.820313 6.800781 0 2.570313-1.003907 4.984375-2.820313 6.800782zm15.910156-187.109375c20.558594-1.183593 40.609375-4.507812 59.886719-9.894531-1.535157 2.65625-2.632813 5.578125-3.230469 8.683594-3.128906 16.265625-15.59375 27.882812-24.1875 33.679687zm127.277344 223.542969c1.023437 1.023438.777344 2.140625.539062 2.714844-.238281.570312-.851562 1.535156-2.296875 1.535156h-34.5625c-3.054687 0-5.925781-1.191406-8.085937-3.351562l-16.253906-16.253907 22.652343-22.65625zm-38.824219-59.792969c.375.402344.363281 1.023438-.023437 1.410157l-4.457032 4.457031c-.003906.003906-.003906.003906-.007812.003906 0 .003906-.003906.003906-.003906.007813l-33.25 33.25s-.003907.003906-.003907.003906c-.003906.003906-.003906.003906-.003906.003906l-4.460937 4.460938c-.386719.386718-1.007813.394531-1.410157.023437-8.863281-8.1875-22.71875-19.222656-36.566406-23.222656l56.96875-56.964844c4 13.84375 15.03125 27.703125 23.21875 36.566406zm6.175781-166.90625c1.921875 2.839844 2.625 6.257813 1.976563 9.625-7.714844 40.128907-44.921875 65.53125-62.199219 69.636719-.984375.230469-1.992188.351562-2.988281.351562-5.964844 0-11.09375-4.0625-12.476563-9.878906-1.632812-6.878906 2.632813-13.816406 9.511719-15.457031.058594-.015625.117187-.027344.171875-.042969 1.25-.332031 3.0625-1.050781 5.238281-2.148437.625-.226563 1.21875-.542969 1.777344-.941407 11.625-6.386718 31.0625-22.015624 35.746094-46.367187.648437-3.371094 2.570312-6.285156 5.410156-8.210937 2.148437-1.453126 4.625-2.210938 7.164063-2.210938.816406 0 1.640624.078125 2.460937.234375 3.367187.648437 6.28125 2.570313 8.207031 5.410156zm77.65625-91.207031c-48.472656 50.941406-114.738281 79.226562-186.808594 79.839844l-58.804687-58.804688c-11.011719-11.011718-25.605469-17.128906-41.152344-17.292968 16.355469-5.878907 30.261719-15.195313 43.808594-24.28125 17.785156-11.929688 34.582031-23.199219 53.753906-23.199219s35.972657 11.269531 53.753907 23.199219c17.871093 11.988281 36.351562 24.382812 60.277343 28.746093 5.691407 1.035157 11.464844 1.558594 17.339844 1.558594 19.328125 0 39.730469-5.644531 61.746094-17.042969-.625 2.695313-1.945313 5.207032-3.914063 7.277344zm-269.316406-42.464844c4.144531 0 7.5-3.355468 7.5-7.5v-13.597656c0-4.144531-3.355469-7.5-7.5-7.5-4.140625 0-7.5 3.355469-7.5 7.5v13.597656c0 4.144532 3.359375 7.5 7.5 7.5zm110.410156 60.15625c-3.121094-2.722656-7.859375-2.398437-10.582031.726563-3.589844 4.117187-8.769531 6.480469-14.214844 6.480469-5.449219 0-10.628906-2.363282-14.21875-6.480469-2.71875-3.121094-7.460937-3.449219-10.582031-.726563s-3.449219 7.457032-.726562 10.582032c6.4375 7.386718 15.742187 11.625 25.527343 11.625 9.78125 0 19.085938-4.238282 25.523438-11.625 2.722656-3.125 2.398437-7.859376-.726563-10.582032zm-7.617187-43.878906c-11.265625-2.949219-23.097657-2.949219-34.359375 0-4.667969 1.21875-8.730469 4.089844-11.441406 8.078125-3.664063 5.386719-1.558594 12.769531 4.390624 15.417969l16.507813 7.339844c4.914063 2.183593 10.527344 2.183593 15.441406 0l16.507813-7.339844c5.949218-2.648438 8.054687-10.03125 4.390625-15.417969-2.707031-3.988281-6.773438-6.859375-11.4375-8.078125zm-95.816407 103.527344c-6.675781-6.675782-17.539062-6.675782-24.210937 0l-21.675781 21.675781c-6.675782 6.675781-6.675782 17.535156 0 24.210937l88.167968 88.167969c3.339844 3.339844 7.722657 5.007813 12.105469 5.007813 4.386719 0 8.769531-1.667969 12.109375-5.007813l21.671875-21.671875c3.234375-3.234375 5.015625-7.535156 5.015625-12.105468 0-4.574219-1.78125-8.875-5.015625-12.109376zm77.5625 101.773437-21.675781 21.675781c-.511719.511719-1.097656.621094-1.5.621094-.402343 0-.984375-.109375-1.5-.621094l-88.167969-88.171874c-.828124-.824219-.828124-2.171876 0-2.996094l21.675782-21.675782c.410156-.414062.953125-.617187 1.5-.617187.542968 0 1.085937.203125 1.496094.617187l88.171874 88.171876c.511719.511718.621094 1.097656.621094 1.496093 0 .402344-.109375.988281-.621094 1.5zm0 0"/></svg>