<?xml version="1.0" encoding="UTF-8" standalone="no"?>
<!-- Created with Inkscape (http://www.inkscape.org/) -->

<svg
   xmlns:dc="http://purl.org/dc/elements/1.1/"
   xmlns:cc="http://creativecommons.org/ns#"
   xmlns:rdf="http://www.w3.org/1999/02/22-rdf-syntax-ns#"
   xmlns:svg="http://www.w3.org/2000/svg"
   xmlns="http://www.w3.org/2000/svg"
   xmlns:sodipodi="http://sodipodi.sourceforge.net/DTD/sodipodi-0.dtd"
   xmlns:inkscape="http://www.inkscape.org/namespaces/inkscape"
   width="32.400002"
   height="20.799999"
   viewBox="0 0 8.5725004 5.5033333"
   version="1.1"
   id="svg142"
   inkscape:version="0.92.0 r15299"
   sodipodi:docname="oracle.svg">
  <defs
     id="defs136" />
  <sodipodi:namedview
     id="base"
     pagecolor="#ffffff"
     bordercolor="#666666"
     borderopacity="1.0"
     inkscape:pageopacity="0.0"
     inkscape:pageshadow="2"
     inkscape:zoom="25.625001"
     inkscape:cx="16.200001"
     inkscape:cy="10.4"
     inkscape:document-units="mm"
     inkscape:current-layer="layer1"
     showgrid="false"
     fit-margin-top="0"
     fit-margin-left="0"
     fit-margin-right="0"
     fit-margin-bottom="0"
     units="px"
     inkscape:window-width="1280"
     inkscape:window-height="744"
     inkscape:window-x="-4"
     inkscape:window-y="-4"
     inkscape:window-maximized="1" />
  <metadata
     id="metadata139">
    <rdf:RDF>
      <cc:Work
         rdf:about="">
        <dc:format>image/svg+xml</dc:format>
        <dc:type
           rdf:resource="http://purl.org/dc/dcmitype/StillImage" />
        <dc:title></dc:title>
      </cc:Work>
    </rdf:RDF>
  </metadata>
  <g
     inkscape:label="Layer 1"
     inkscape:groupmode="layer"
     id="layer1"
     transform="translate(-8.3192558,-145.94938)">
    <path
       style="fill:#c74634;stroke-width:0.26458332"
       inkscape:connector-curvature="0"
       d="m 11.070923,151.32042 c -1.4552089,0 -2.6193756,-1.16416 -2.6193756,-2.61937 0,-1.45521 1.1641667,-2.61938 2.6193756,-2.61938 h 3.069167 c 1.455208,0 2.619375,1.16417 2.619375,2.61938 0,1.45521 -1.164167,2.61937 -2.619375,2.61937 h -3.069167 m 2.989792,-0.92604 c 0.9525,0 1.693333,-0.76729 1.693333,-1.69333 0,-0.9525 -0.767292,-1.69333 -1.693333,-1.69333 h -2.910417 c -0.9525,0 -1.6933339,0.76729 -1.6933339,1.69333 0,0.92604 0.7672919,1.69333 1.6933339,1.69333 h 2.910417"
       id="path112" />
  </g>
</svg>
