<?xml version="1.0"?>
<svg xmlns="http://www.w3.org/2000/svg" xmlns:xlink="http://www.w3.org/1999/xlink" xmlns:svgjs="http://svgjs.com/svgjs" version="1.1" width="512" height="512" x="0" y="0" viewBox="0 0 512 512.00016" style="enable-background:new 0 0 512 512" xml:space="preserve" class=""><g><path xmlns="http://www.w3.org/2000/svg" d="m502.011719 197.992188c0 103.832031-84.175781 188.003906-188.003907 188.003906-103.832031 0-188.003906-84.171875-188.003906-188.003906 0-103.828126 84.171875-188 188.003906-188 103.828126 0 188.003907 84.171874 188.003907 188zm0 0" fill="#b0e7f8" data-original="#b0e7f8" style="" class=""/><path xmlns="http://www.w3.org/2000/svg" d="m449.085938 198.917969c0 75.109375-60.890626 136-136 136-75.113282 0-136.003907-60.890625-136.003907-136 0-75.113281 60.890625-136.003907 136.003907-136.003907 75.109374 0 136 60.890626 136 136.003907zm0 0" fill="#ffffff" data-original="#ffffff" style="" class=""/><path xmlns="http://www.w3.org/2000/svg" d="m207.394531 357.234375-133.867187 133.867187c-14.53125 14.53125-38.09375 14.53125-52.625 0-14.535156-14.535156-14.535156-38.097656 0-52.628906l133.867187-133.867187zm0 0" fill="#fcd34d" data-original="#00ccf2" style="" class=""/><path xmlns="http://www.w3.org/2000/svg" d="m155.003906 409.625-52.625-52.628906 52.390625-52.390625 52.625 52.628906zm0 0" fill="#ffffff" data-original="#ffffff" style="" class=""/><path xmlns="http://www.w3.org/2000/svg" d="m396.859375 244.917969-83.773437 46-83.773438-46v-92.003907l83.773438-46 83.773437 46zm0 0" fill="#ffcb7c" data-original="#ffcb7c" style="" class=""/><path xmlns="http://www.w3.org/2000/svg" d="m229.3125 152.945312v91.972657l83.773438 46 .046874-.027344v-91.972656l-83.773437-46zm0 0" fill="#ffd89e" data-original="#ffd89e" style=""/><path xmlns="http://www.w3.org/2000/svg" d="m229.3125 152.914062v.003907l83.773438 46 83.773437-46v-.003907l-83.773437-46zm0 0" fill="#ffe6c0" data-original="#ffe6c0" style="" class=""/><path xmlns="http://www.w3.org/2000/svg" d="m313.085938 344.851562c37.386718 0 74.773437-14.230468 103.238281-42.695312 22.46875-22.46875 36.734375-50.921875 41.261719-82.289062 4.371093-30.3125-1.027344-61.867188-15.207032-88.851563-2.570312-4.886719-8.613281-6.765625-13.503906-4.199219-4.890625 2.570313-6.769531 8.617188-4.199219 13.503906 25.796875 49.089844 16.757813 108.441407-22.492187 147.691407-49.128906 49.128906-129.066406 49.128906-178.195313 0-49.128906-49.125-49.128906-129.066407 0-178.191407 39.390625-39.394531 98.894531-48.351562 148.070313-22.292968 4.878906 2.582031 10.933594.722656 13.519531-4.15625s.726563-10.929688-4.152344-13.515625c-27.015625-14.316407-58.640625-19.8125-89.050781-15.472657-31.460938 4.484376-60 18.765626-82.527344 41.292969-56.925781 56.925781-56.925781 149.554688 0 206.480469 28.460938 28.460938 65.847656 42.695312 103.238282 42.695312zm0 0" fill="#000000" data-original="#000000" style="" class=""/><path xmlns="http://www.w3.org/2000/svg" d="m454.015625 57.984375c-32.167969-32.167969-74.765625-52.40625-119.945313-56.980469-44.535156-4.511718-89.683593 6.277344-127.117187 30.375-4.644531 2.988282-5.984375 9.175782-2.992187 13.820313 2.988281 4.644531 9.175781 5.984375 13.820312 2.996093 69.851562-44.96875 163.253906-34.90625 222.09375 23.929688 69.402344 69.40625 69.402344 182.332031 0 251.734375-33.621094 33.621094-78.320312 52.136719-125.867188 52.136719-47.546874 0-92.25-18.515625-125.867187-52.136719-58.839844-58.835937-68.902344-152.238281-23.933594-222.089844 2.988281-4.644531 1.648438-10.832031-2.996093-13.820312-4.644532-2.992188-10.832032-1.648438-13.820313 2.992187-24.097656 37.433594-34.886719 82.574219-30.375 127.117188 2.96875 29.300781 12.53125 57.511718 27.65625 82.5l-130.84375 130.84375c-18.40625 18.40625-18.40625 48.359375 0 66.769531 9.207031 9.207031 21.296875 13.808594 33.386719 13.808594s24.179687-4.605469 33.386718-13.808594l130.769532-130.773437c30.632812 18.636718 65.867187 28.601562 102.636718 28.601562 52.886719 0 102.609376-20.597656 140.007813-57.996094 77.203125-77.203125 77.203125-202.816406 0-280.019531zm-387.558594 426.046875c-10.609375 10.609375-27.875 10.609375-38.484375 0-10.609375-10.613281-10.609375-27.878906 0-38.488281l74.40625-74.40625 38.484375 38.488281zm88.546875-88.550781-38.484375-38.484375 39.578125-39.578125c5.46875 7.238281 11.4375 14.125 17.898438 20.585937 6.496094 6.492188 13.367187 12.46875 20.558594 17.929688zm0 0" fill="#000000" data-original="#000000" style="" class=""/><path xmlns="http://www.w3.org/2000/svg" d="m353.085938 452h-16.226563c-5.523437 0-10 4.476562-10 10 0 5.519531 4.476563 10 10 10h16.226563c5.519531 0 10-4.480469 10-10 0-5.523438-4.480469-10-10-10zm0 0" fill="#000000" data-original="#000000" style="" class=""/><path xmlns="http://www.w3.org/2000/svg" d="m288.191406 452h-15.109375c-5.519531 0-10 4.476562-10 10 0 5.519531 4.480469 10 10 10h15.109375c5.519532 0 10-4.480469 10-10 0-5.523438-4.480468-10-10-10zm0 0" fill="#000000" data-original="#000000" style="" class=""/><path xmlns="http://www.w3.org/2000/svg" d="m313.085938 412c-5.523438 0-10 4.476562-10 10v14.632812c0 5.519532 4.476562 10 10 10 5.519531 0 10-4.480468 10-10v-14.632812c0-5.523438-4.480469-10-10-10zm0 0" fill="#000000" data-original="#000000" style="" class=""/><path xmlns="http://www.w3.org/2000/svg" d="m313.085938 480.214844c-5.523438 0-10 4.480468-10 10v11.785156c0 5.523438 4.476562 10 10 10 5.519531 0 10-4.476562 10-10v-11.785156c0-5.519532-4.480469-10-10-10zm0 0" fill="#000000" data-original="#000000" style="" class=""/><path xmlns="http://www.w3.org/2000/svg" d="m73.777344 266.628906h16.222656c5.523438 0 10.003906-4.480468 10.003906-10 0-5.523437-4.480468-10-10.003906-10h-16.222656c-5.523438 0-10.003906 4.476563-10.003906 10 0 5.519532 4.480468 10 10.003906 10zm0 0" fill="#000000" data-original="#000000" style="" class=""/><path xmlns="http://www.w3.org/2000/svg" d="m10 266.628906h15.105469c5.523437 0 10-4.480468 10-10 0-5.523437-4.476563-10-10-10h-15.105469c-5.523438 0-10 4.476563-10 10 0 5.519532 4.476562 10 10 10zm0 0" fill="#000000" data-original="#000000" style="" class=""/><path xmlns="http://www.w3.org/2000/svg" d="m50 241.261719c5.523438 0 10-4.480469 10-10v-14.632813c0-5.523437-4.476562-10-10-10-5.519531 0-10 4.476563-10 10v14.632813c0 5.519531 4.476562 10 10 10zm0 0" fill="#000000" data-original="#000000" style="" class=""/><path xmlns="http://www.w3.org/2000/svg" d="m50 306.628906c5.523438 0 10-4.476562 10-10v-11.785156c0-5.519531-4.476562-10-10-10-5.519531 0-10 4.480469-10 10v11.785156c0 5.523438 4.476562 10 10 10zm0 0" fill="#000000" data-original="#000000" style="" class=""/><path xmlns="http://www.w3.org/2000/svg" d="m308.269531 98.148438-83.773437 46.003906c-3.199219 1.757812-5.1875 5.144531-5.1875 8.792968v91.972657c0 3.648437 1.988281 7.007812 5.1875 8.765625l83.773437 46c1.488281.816406 3.140625 1.222656 4.796875 1.222656 1.683594 0 3.367188-.417969 4.882813-1.25l83.722656-45.972656c3.199219-1.757813 5.1875-5.117188 5.1875-8.765625v-92c0-3.652344-1.988281-7.011719-5.1875-8.769531l-83.773437-46c-3-1.644532-6.628907-1.644532-9.628907 0zm4.816407 20.175781 62.996093 34.59375-62.996093 34.589843-62.980469-34.605468zm-73.777344 51.46875 63.773437 35.039062v69.1875l-63.773437-35.019531zm83.777344 104.226562v-69.183593l63.773437-35.019532v69.183594zm0 0" fill="#000000" data-original="#000000" style="" class=""/><path xmlns="http://www.w3.org/2000/svg" d="m409.257812 112.742188c2.628907 0 5.199219-1.0625 7.058594-2.929688 1.871094-1.859375 2.933594-4.429688 2.933594-7.0625 0-2.640625-1.0625-5.207031-2.933594-7.078125-1.855468-1.859375-4.429687-2.921875-7.058594-2.921875-2.640624 0-5.21875 1.0625-7.070312 2.921875-1.871094 1.871094-2.929688 4.4375-2.929688 7.078125 0 2.632812 1.058594 5.203125 2.929688 7.0625 1.851562 1.871094 4.429688 2.929688 7.070312 2.929688zm0 0" fill="#000000" data-original="#000000" style="" class=""/><path xmlns="http://www.w3.org/2000/svg" d="m181.0625 75.050781c2.640625 0 5.210938-1.058593 7.082031-2.929687 1.859375-1.859375 2.917969-4.441406 2.917969-7.070313 0-2.628906-1.058594-5.210937-2.917969-7.070312s-4.441406-2.929688-7.082031-2.929688c-2.628906 0-5.210938 1.070313-7.070312 2.929688-1.859376 1.859375-2.929688 4.441406-2.929688 7.070312 0 2.628907 1.070312 5.210938 2.929688 7.070313 1.871093 1.871094 4.441406 2.929687 7.070312 2.929687zm0 0" fill="#000000" data-original="#000000" style="" class=""/></g></svg>
