<svg id="telescope" enable-background="new 0 0 300 300" height="512" viewBox="0 0 300 300" width="512" xmlns="http://www.w3.org/2000/svg"><g><circle cx="162.28" cy="171.722" fill="#e7d1c4" r="74"/><g fill="#4c241d"><path d="m70.28 93.722c-7.719 0-14-6.281-14-14s6.281-14 14-14 14 6.281 14 14-6.281 14-14 14zm0-20c-3.309 0-6 2.691-6 6s2.691 6 6 6 6-2.691 6-6-2.691-6-6-6z"/><path d="m117.937 115.378c-1.023 0-2.047-.391-2.828-1.172l-11.312-11.312c-1.562-1.562-1.562-4.094 0-5.656s4.094-1.562 5.656 0l11.312 11.312c1.562 1.562 1.562 4.094 0 5.656-.782.782-1.805 1.172-2.828 1.172z"/><path d="m106.624 115.378c-1.023 0-2.047-.391-2.828-1.172-1.562-1.562-1.562-4.094 0-5.656l11.312-11.312c1.562-1.562 4.094-1.562 5.656 0s1.562 4.094 0 5.656l-11.312 11.312c-.781.782-1.805 1.172-2.828 1.172z"/><circle cx="104.28" cy="65.722" r="4"/><path d="m233.937 219.378c-1.023 0-2.047-.391-2.828-1.172l-11.312-11.312c-1.562-1.562-1.562-4.094 0-5.656s4.094-1.562 5.656 0l11.312 11.312c1.562 1.562 1.562 4.094 0 5.656-.782.782-1.805 1.172-2.828 1.172z"/><path d="m222.624 219.378c-1.023 0-2.047-.391-2.828-1.172-1.562-1.562-1.562-4.094 0-5.656l11.312-11.312c1.562-1.562 4.094-1.562 5.656 0s1.562 4.094 0 5.656l-11.312 11.312c-.781.782-1.805 1.172-2.828 1.172z"/><circle cx="204.28" cy="249.722" r="4"/><circle cx="160.28" cy="225.722" r="4"/></g><g><path d="m68.641 187.362h28v60h-28z" fill="#6b4f5b" transform="matrix(.707 .707 -.707 .707 177.903 5.228)"/><path d="m71.327 252.474c-1.023 0-2.047-.391-2.828-1.172l-19.799-19.799c-1.562-1.562-1.562-4.094 0-5.656l42.426-42.426c1.562-1.562 4.094-1.562 5.656 0l19.799 19.799c1.562 1.562 1.562 4.094 0 5.656l-42.426 42.426c-.781.781-1.804 1.172-2.828 1.172zm-14.142-23.799 14.143 14.143 36.77-36.77-14.143-14.143z" fill="#4c241d"/></g><g><path d="m129.503 139.386-29.326 29.326c-2.713 2.713 2.052 11.877 10.644 20.469s17.756 13.357 20.469 10.644l29.326-29.326z" fill="#6b4f5b"/><path d="m129.136 204.599c-6.193 0-14.672-6.119-21.143-12.59-8.48-8.48-16.357-20.412-10.645-26.125l29.326-29.326c1.562-1.562 4.094-1.562 5.656 0l31.113 31.113c1.562 1.562 1.562 4.094 0 5.656l-29.326 29.326c-1.352 1.354-3.057 1.946-4.981 1.946zm-25.723-33.465c.125 1.977 3.078 8.061 10.236 15.219s13.242 10.111 15.219 10.236l26.092-26.09-25.457-25.457z" fill="#4c241d"/></g><g><path d="m114.304 185.698c-8.592-8.592-13.357-17.756-10.644-20.469l-13.844 13.844c-2.713 2.713 2.052 11.877 10.644 20.469s17.756 13.357 20.469 10.644l13.844-13.844c-2.713 2.713-11.877-2.052-20.469-10.644z" fill="#ffce56"/><path d="m118.774 214.96c-6.193 0-14.672-6.119-21.143-12.59-8.48-8.48-16.357-20.412-10.645-26.125l13.832-13.83c.004-.006.01-.01.014-.016 1.562-1.559 4.094-1.561 5.656.002 1.414 1.414 1.549 3.623.404 5.188.062 1.906 3.002 8.043 10.238 15.281 7.236 7.236 13.375 10.176 15.281 10.238 1.572-1.143 3.775-1.006 5.188.404 1.562 1.561 1.562 4.094.002 5.656-.006.004-.01.01-.016.014l-13.83 13.832c-1.352 1.354-3.057 1.946-4.981 1.946zm-25.722-33.465c.125 1.977 3.078 8.061 10.236 15.219s13.242 10.111 15.219 10.236l7.564-7.564c-.381-.176-.771-.369-1.174-.578-4.219-2.193-8.986-5.844-13.422-10.281-4.438-4.436-8.088-9.203-10.281-13.422-.209-.402-.402-.793-.578-1.174z" fill="#4c241d"/></g><g><path d="m204.263 41.999-33.941 33.941c-4.686 4.686 3.545 20.515 18.385 35.355s30.669 23.071 35.355 18.385l33.941-33.941z" fill="#6b4f5b"/><path d="m220.343 134.972c-9.299 0-23.293-9.676-34.465-20.848-14.305-14.303-26.158-33.238-18.385-41.012l33.941-33.941c1.562-1.562 4.094-1.562 5.656 0l53.74 53.74c1.562 1.562 1.562 4.094 0 5.656l-33.941 33.941c-1.7 1.704-3.939 2.464-6.546 2.464zm-16.08-87.316-31.113 31.113c-1.375 1.992 3.205 14.518 18.385 29.699 15.18 15.178 27.715 19.764 29.711 18.373l31.102-31.102z" fill="#4c241d"/></g><g><ellipse cx="233.962" cy="66.041" fill="#00ccca" rx="12" ry="38" transform="matrix(.707 -.707 .707 .707 21.828 184.779)"/><path d="m257.112 98.202c-9.299 0-23.293-9.676-34.465-20.848-14.305-14.303-26.158-33.238-18.385-41.012 7.766-7.783 26.707 4.08 41.012 18.385 14.305 14.303 26.158 33.238 18.385 41.012-1.701 1.704-3.939 2.463-6.547 2.463zm-46.154-56.427c-.475 0-.828.08-1.051.236-1.363 1.98 3.217 14.506 18.396 29.688 15.143 15.143 27.65 19.734 29.697 18.383 1.359-2.045-3.23-14.545-18.383-29.697-13.491-13.493-24.88-18.61-28.659-18.61z" fill="#4c241d"/></g><g><path d="m174.639 82.937-41.533 41.533c-3.7 3.7 2.799 16.196 14.514 27.912 11.716 11.716 24.212 18.214 27.912 14.514l41.533-41.533z" fill="#6b4f5b"/><path d="m172.562 171.923c-2.457 0-5.658-.787-9.824-2.955-5.625-2.924-11.998-7.811-17.945-13.758s-10.834-12.32-13.758-17.945c-4.633-8.906-2.969-13.412-.756-15.625l41.533-41.531c1.562-1.562 4.094-1.562 5.656 0l42.426 42.426c1.562 1.562 1.562 4.094 0 5.656l-41.533 41.533c-1.176 1.178-3.005 2.199-5.799 2.199zm2.078-83.33-38.705 38.705c-.434 1.547 2.832 10.574 14.514 22.256 11.684 11.684 20.68 14.945 22.506 14.34l38.457-38.529z" fill="#4c241d"/></g><g><path d="m202.849 97.153c-14.84-14.84-23.071-30.669-18.385-35.355l-14.142 14.142c-4.686 4.686 3.545 20.515 18.385 35.355s30.669 23.071 35.355 18.385l14.142-14.142c-4.686 4.687-20.515-3.545-35.355-18.385z" fill="#ffce56"/><path d="m220.343 134.972c-9.299.002-23.293-9.676-34.465-20.848-14.305-14.303-26.158-33.238-18.385-41.012l14.143-14.143c1.562-1.562 4.094-1.562 5.656 0 .781.781 1.172 1.805 1.172 2.828s-.391 2.047-1.172 2.828c-1.375 1.992 3.205 14.518 18.385 29.699 15.166 15.166 27.68 19.762 29.707 18.377.068-.068.137-.133.209-.195 1.572-1.365 3.951-1.301 5.445.197 1.562 1.562 1.557 4.1-.006 5.662l-14.143 14.143c-1.7 1.704-3.939 2.464-6.546 2.464zm-40.063-63.334-7.131 7.131c-1.375 1.992 3.205 14.518 18.385 29.699 15.18 15.178 27.715 19.764 29.711 18.373l7.119-7.119c-8.693-2.846-19.42-10.816-28.344-19.74s-16.894-19.651-19.74-28.344z" fill="#4c241d"/></g><g><path d="m151.342 148.661c-11.716-11.716-18.214-24.212-14.514-27.912l-13.993 13.993c-3.7 3.7 2.799 16.196 14.514 27.912s24.212 18.214 27.912 14.514l13.993-13.993c-3.7 3.7-16.197-2.799-27.912-14.514z" fill="#ffce56"/><path d="m162.288 182.197c-2.455 0-5.656-.789-9.822-2.955-5.625-2.926-11.998-7.812-17.945-13.76s-10.834-12.32-13.76-17.945c-4.631-8.906-2.967-13.412-.754-15.625l13.992-13.99c1.562-1.562 4.094-1.562 5.656 0 .781.781 1.172 1.805 1.172 2.828s-.391 2.047-1.172 2.828c-.432 1.547 2.834 10.572 14.514 22.256 11.486 11.482 20.381 14.818 22.41 14.367.164-.148.338-.281.518-.396 1.549-1.166 3.684-.971 5.109.455 1.562 1.562 1.438 4.182-.125 5.744l-13.992 13.992c-1.176 1.177-3.004 2.201-5.801 2.201zm-29.129-52.123-7.496 7.496c-.434 1.547 2.83 10.574 14.514 22.256 11.682 11.684 20.711 14.961 22.504 14.34l7.273-7.312c-6.705-2.566-14.576-8.498-21.441-15.363-6.858-6.859-12.782-14.718-15.354-21.417z" fill="#4c241d"/></g><g><path d="m60.013 259.788-19.799-19.799c-3.124-3.124-3.124-8.189 0-11.314 3.124-3.124 8.19-3.124 11.314 0l19.799 19.799c3.124 3.124 3.124 8.19 0 11.314-3.124 3.124-8.19 3.124-11.314 0z" fill="#ffce56"/><path d="m65.669 266.124c-3.072 0-6.145-1.168-8.484-3.506 0-.002 0-.002 0-.002l-19.799-19.799c-4.678-4.68-4.678-12.291-.002-16.971 4.682-4.678 12.291-4.68 16.973-.002l19.799 19.801c4.678 4.68 4.678 12.291.002 16.971-2.343 2.338-5.415 3.508-8.489 3.508zm-2.828-9.166c1.555 1.559 4.096 1.562 5.658 0 1.559-1.559 1.559-4.096-.002-5.656l-19.797-19.799c-1.559-1.561-4.1-1.559-5.658.002-1.559 1.559-1.559 4.096.002 5.656z" fill="#4c241d"/></g></g></svg>